<?xml version="1.0" encoding="iso-8859-1"?>
<!-- Generator: Adobe Illustrator 19.0.0, SVG Export Plug-In . SVG Version: 6.00 Build 0)  -->
<svg version="1.1" id="Layer_1" xmlns="http://www.w3.org/2000/svg" xmlns:xlink="http://www.w3.org/1999/xlink" x="0px" y="0px"
	 viewBox="0 0 470 470" style="enable-background:new 0 0 470 470;" xml:space="preserve">
<g>
	<g>
		<path style="fill:#1BD741;" d="M170,430L45,460l37.5-83.398C43.902,337.695,20,284.102,20,225c0-118.701,96.299-215,215-215
			s215,96.299,215,215s-96.299,215-215,215C212.403,440,190.498,436.397,170,430z"/>
	</g>
	<g>
		<g id="XMLID_21_">
			<path style="fill:#FFFFFF;" d="M342.002,282.598l-49.404-49.497c-3.994-3.901-10.293-3.901-14.199,0l-21.201,21.196
				l-56.597-56.499l21.201-21.196c3.896-3.901,3.896-10.303,0-14.199L172.3,112.9c-3.901-3.901-10.2-3.901-14.102,0l-45.996,46.001
				c0,0,5.596,43.896,72.798,111.099c67.1,67.197,111.104,72.695,111.104,72.695l45.898-45.898
				C345.996,292.9,345.996,286.504,342.002,282.598z"/>
			<g>
				<path style="fill:#231F20;" d="M235,0C110.935,0,10,100.935,10,225c0,57.486,21.471,111.785,60.607,153.666L35.88,455.899
					c-1.564,3.479-1.013,7.544,1.42,10.481c1.925,2.323,4.762,3.62,7.7,3.62c0.776,0,1.559-0.091,2.334-0.277l122.35-29.364
					c21.39,6.397,43.351,9.64,65.316,9.64c124.065,0,225-100.935,225-225S359.066,0,235,0z M235,430
					c-20.615,0-41.24-3.144-61.317-9.333c-1.431-0.585-2.799-0.765-3.883-0.765v0.122c-0.716,0.014-1.431,0.083-2.134,0.253
					L62.474,445.522l29.146-64.82c1.697-3.775,0.894-8.206-2.021-11.144C51.166,330.819,30,279.481,30,225
					c0-113.038,91.962-205,205-205s205,91.962,205,205S348.038,430,235,430z"/>
				<path style="fill:#231F20;" d="M299.676,226.036c-0.03-0.03-0.06-0.06-0.09-0.089c-3.811-3.722-8.825-5.772-14.12-5.772
					c-5.336,0-10.355,2.078-14.137,5.854l-14.136,14.133l-42.442-42.369l14.128-14.124c7.806-7.816,7.804-20.528-0.004-28.337
					l-49.502-49.502c-3.776-3.775-8.791-5.854-14.122-5.854s-10.346,2.079-14.122,5.855l-45.997,46.002
					c-2.187,2.188-3.238,5.265-2.847,8.334c0.247,1.931,6.819,48.078,75.642,116.9c68.737,68.837,115.004,75.311,116.94,75.552
					c0.414,0.052,0.828,0.077,1.24,0.077c2.635,0,5.184-1.042,7.07-2.929l45.869-45.869c3.837-3.773,5.951-8.807,5.954-14.184
					c0.003-5.387-2.111-10.433-5.955-14.217L299.676,226.036z M334.919,289.738l-42.037,42.037
					c-12.251-3.318-48.967-16.926-100.811-68.846c-51.381-51.381-65.411-88.542-68.894-100.863l42.051-42.095l49.503,49.559
					l-21.201,21.196c-1.877,1.876-2.931,4.422-2.93,7.076s1.057,5.198,2.935,7.073l56.597,56.499
					c3.906,3.899,10.232,3.897,14.135-0.005l21.197-21.194c0.04,0,0.079,0.02,0.128,0.063l49.332,49.424
					c0.011,0.011,0.023,0.023,0.035,0.035C334.946,289.711,334.932,289.725,334.919,289.738z"/>
			</g>
		</g>
	</g>
</g>
<g>
</g>
<g>
</g>
<g>
</g>
<g>
</g>
<g>
</g>
<g>
</g>
<g>
</g>
<g>
</g>
<g>
</g>
<g>
</g>
<g>
</g>
<g>
</g>
<g>
</g>
<g>
</g>
<g>
</g>
</svg>
