<?xml version="1.0" encoding="iso-8859-1"?>
<!-- Generator: Adobe Illustrator 17.1.0, SVG Export Plug-In . SVG Version: 6.00 Build 0)  -->
<!DOCTYPE svg PUBLIC "-//W3C//DTD SVG 1.1//EN" "http://www.w3.org/Graphics/SVG/1.1/DTD/svg11.dtd">
<svg version="1.1" id="Capa_1" xmlns="http://www.w3.org/2000/svg" xmlns:xlink="http://www.w3.org/1999/xlink" x="0px" y="0px"
	 viewBox="0 0 465 465" style="enable-background:new 0 0 465 465;" xml:space="preserve">
<g>
	<path d="M375.682,175.909c-4.142,0-7.5,3.358-7.5,7.5v2.727h-36.136v-7.841c0-4.142-3.358-7.5-7.5-7.5h-2.727V89.318
		C321.818,40.068,281.75,0,232.5,0s-89.318,40.068-89.318,89.318v81.477h-2.727c-4.142,0-7.5,3.358-7.5,7.5v7.841H96.818v-2.727
		c0-4.142-3.358-7.5-7.5-7.5s-7.5,3.358-7.5,7.5v20.455c0,4.142,3.358,7.5,7.5,7.5s7.5-3.358,7.5-7.5v-2.728h5.455v41.591
		c0,69.29,54.397,126.107,122.727,130.006v46.585h-94.773c-15.414,0-27.954,12.54-27.954,27.954V457.5c0,4.142,3.358,7.5,7.5,7.5
		h245.454c4.142,0,7.5-3.358,7.5-7.5v-10.228c0-15.414-12.54-27.954-27.954-27.954H240v-46.585
		c68.331-3.9,122.727-60.717,122.727-130.006v-41.591h5.455v2.728c0,4.142,3.358,7.5,7.5,7.5s7.5-3.358,7.5-7.5v-20.455
		C383.182,179.267,379.824,175.909,375.682,175.909z M347.727,447.272V450H117.273v-2.728c0-7.143,5.811-12.954,12.954-12.954
		h204.546C341.916,434.318,347.727,440.129,347.727,447.272z M147.955,216.477h105.682c4.142,0,7.5-3.358,7.5-7.5
		s-3.358-7.5-7.5-7.5H147.955v-15.682h169.091v15.682h-33.409c-4.142,0-7.5,3.358-7.5,7.5s3.358,7.5,7.5,7.5h33.409v26.25
		c0,46.619-37.927,84.545-84.545,84.545s-84.545-37.927-84.545-84.545V216.477z M158.182,89.318C158.182,48.339,191.521,15,232.5,15
		s74.318,33.339,74.318,74.318v81.477H158.182V89.318z M347.727,242.727c0,63.537-51.69,115.228-115.227,115.228
		s-115.227-51.691-115.227-115.228v-41.591h15.682v41.591c0,54.89,44.656,99.545,99.545,99.545s99.545-44.656,99.545-99.545v-41.591
		h15.682V242.727z"/>
	<path d="M191.591,129.631c-4.276,0-7.755,3.479-7.755,7.755s3.479,7.756,7.755,7.756s7.756-3.479,7.756-7.756
		S195.867,129.631,191.591,129.631z"/>
	<path d="M232.53,129.886h-0.01c-4.142,0-7.495,3.358-7.495,7.5s3.363,7.5,7.505,7.5c4.143,0,7.5-3.358,7.5-7.5
		S236.672,129.886,232.53,129.886z"/>
	<path d="M273.409,129.631c-4.276,0-7.756,3.479-7.756,7.755s3.479,7.756,7.756,7.756s7.755-3.479,7.755-7.756
		S277.686,129.631,273.409,129.631z"/>
	<path d="M191.591,88.21c-4.276,0-7.755,3.479-7.755,7.756s3.479,7.756,7.755,7.756s7.756-3.479,7.756-7.756
		S195.867,88.21,191.591,88.21z"/>
	<path d="M232.53,88.466h-0.01c-4.142,0-7.495,3.358-7.495,7.5s3.363,7.5,7.505,7.5c4.143,0,7.5-3.358,7.5-7.5
		S236.672,88.466,232.53,88.466z"/>
	<path d="M273.409,88.21c-4.276,0-7.756,3.479-7.756,7.756s3.479,7.756,7.756,7.756s7.755-3.479,7.755-7.756
		S277.686,88.21,273.409,88.21z"/>
	<path d="M193.125,47.301c-4.276,0-7.756,3.479-7.756,7.755s3.479,7.756,7.756,7.756s7.756-3.479,7.756-7.756
		S197.401,47.301,193.125,47.301z"/>
	<path d="M232.53,47.557h-0.01c-4.142,0-7.495,3.358-7.495,7.5s3.363,7.5,7.505,7.5c4.143,0,7.5-3.358,7.5-7.5
		S236.672,47.557,232.53,47.557z"/>
	<path d="M271.875,62.813c4.276,0,7.756-3.479,7.756-7.756s-3.479-7.755-7.756-7.755s-7.756,3.479-7.756,7.755
		S267.599,62.813,271.875,62.813z"/>
</g>
<g>
</g>
<g>
</g>
<g>
</g>
<g>
</g>
<g>
</g>
<g>
</g>
<g>
</g>
<g>
</g>
<g>
</g>
<g>
</g>
<g>
</g>
<g>
</g>
<g>
</g>
<g>
</g>
<g>
</g>
</svg>
